<svg width="557" height="368" viewBox="0 0 557 368" fill="none" xmlns="http://www.w3.org/2000/svg">
<path d="M0 193C0 187.477 4.47715 183 10 183H230C235.523 183 240 187.477 240 193V216C240 221.523 235.523 226 230 226H10C4.47716 226 0 221.523 0 216V193Z" fill="#C3E9AB"/>
<path d="M97.4824 211H94.8457L89.7129 202.58V211H87.0762V198.203H89.7129L94.8545 206.641V198.203H97.4824V211ZM103.995 211.176C102.601 211.176 101.464 210.748 100.585 209.893C99.7119 209.037 99.2754 207.897 99.2754 206.474V206.228C99.2754 205.272 99.46 204.42 99.8291 203.67C100.198 202.914 100.72 202.334 101.394 201.93C102.073 201.52 102.847 201.314 103.714 201.314C105.015 201.314 106.037 201.725 106.781 202.545C107.531 203.365 107.906 204.528 107.906 206.034V207.071H101.851C101.933 207.692 102.179 208.19 102.589 208.565C103.005 208.94 103.529 209.128 104.162 209.128C105.141 209.128 105.905 208.773 106.456 208.064L107.704 209.462C107.323 210.001 106.808 210.423 106.157 210.728C105.507 211.026 104.786 211.176 103.995 211.176ZM103.705 203.371C103.201 203.371 102.791 203.541 102.475 203.881C102.164 204.221 101.965 204.707 101.877 205.34H105.41V205.138C105.398 204.575 105.246 204.142 104.953 203.837C104.66 203.526 104.244 203.371 103.705 203.371ZM112.397 199.152V201.49H114.023V203.354H112.397V208.1C112.397 208.451 112.465 208.703 112.6 208.855C112.734 209.008 112.992 209.084 113.373 209.084C113.654 209.084 113.903 209.063 114.12 209.022V210.947C113.622 211.1 113.109 211.176 112.582 211.176C110.801 211.176 109.893 210.276 109.857 208.478V203.354H108.469V201.49H109.857V199.152H112.397ZM123.709 207.546L124.957 201.49H127.409L124.983 211H122.856L121.055 205.015L119.253 211H117.135L114.709 201.49H117.161L118.4 207.537L120.141 201.49H121.978L123.709 207.546ZM128.279 206.157C128.279 205.214 128.461 204.373 128.824 203.635C129.188 202.896 129.709 202.325 130.389 201.921C131.074 201.517 131.868 201.314 132.771 201.314C134.054 201.314 135.1 201.707 135.908 202.492C136.723 203.277 137.177 204.344 137.271 205.691L137.288 206.342C137.288 207.801 136.881 208.973 136.066 209.857C135.252 210.736 134.159 211.176 132.788 211.176C131.417 211.176 130.321 210.736 129.501 209.857C128.687 208.979 128.279 207.783 128.279 206.271V206.157ZM130.819 206.342C130.819 207.244 130.989 207.936 131.329 208.416C131.669 208.891 132.155 209.128 132.788 209.128C133.403 209.128 133.884 208.894 134.229 208.425C134.575 207.95 134.748 207.194 134.748 206.157C134.748 205.272 134.575 204.587 134.229 204.101C133.884 203.614 133.397 203.371 132.771 203.371C132.149 203.371 131.669 203.614 131.329 204.101C130.989 204.581 130.819 205.328 130.819 206.342ZM144.196 203.872C143.851 203.825 143.546 203.802 143.282 203.802C142.321 203.802 141.691 204.127 141.393 204.777V211H138.853V201.49H141.252L141.322 202.624C141.832 201.751 142.538 201.314 143.44 201.314C143.722 201.314 143.985 201.353 144.231 201.429L144.196 203.872ZM148.881 207.186L147.967 208.1V211H145.427V197.5H147.967V204.979L148.459 204.347L150.894 201.49H153.943L150.507 205.454L154.242 211H151.324L148.881 207.186Z" fill="#333333"/>
<path d="M0 148C0 142.477 4.47715 138 10 138H230C235.523 138 240 142.477 240 148V170C240 175.523 235.523 180 230 180H10C4.47716 180 0 175.523 0 170V148Z" fill="#FDEEA9"/>
<path d="M91.1279 154.839H87.208V165.5H84.5713V154.839H80.7041V152.703H91.1279V154.839ZM97.2363 158.372C96.8906 158.325 96.5859 158.302 96.3223 158.302C95.3613 158.302 94.7314 158.627 94.4326 159.277V165.5H91.8926V155.99H94.292L94.3623 157.124C94.8721 156.251 95.5781 155.814 96.4805 155.814C96.7617 155.814 97.0254 155.853 97.2715 155.929L97.2363 158.372ZM103.714 165.5C103.597 165.271 103.512 164.987 103.459 164.647C102.844 165.333 102.044 165.676 101.06 165.676C100.128 165.676 99.3545 165.406 98.7393 164.867C98.1299 164.328 97.8252 163.648 97.8252 162.828C97.8252 161.82 98.1973 161.047 98.9414 160.508C99.6914 159.969 100.772 159.696 102.185 159.69H103.354V159.146C103.354 158.706 103.239 158.354 103.011 158.091C102.788 157.827 102.434 157.695 101.947 157.695C101.52 157.695 101.183 157.798 100.937 158.003C100.696 158.208 100.576 158.489 100.576 158.847H98.0361C98.0361 158.296 98.2061 157.786 98.5459 157.317C98.8857 156.849 99.3662 156.482 99.9873 156.219C100.608 155.949 101.306 155.814 102.079 155.814C103.251 155.814 104.18 156.11 104.865 156.702C105.557 157.288 105.902 158.114 105.902 159.181V163.303C105.908 164.205 106.034 164.888 106.28 165.351V165.5H103.714ZM101.613 163.733C101.988 163.733 102.334 163.651 102.65 163.487C102.967 163.317 103.201 163.092 103.354 162.811V161.176H102.404C101.133 161.176 100.456 161.615 100.374 162.494L100.365 162.644C100.365 162.96 100.477 163.221 100.699 163.426C100.922 163.631 101.227 163.733 101.613 163.733ZM110.191 155.99L110.271 157.089C110.95 156.239 111.861 155.814 113.004 155.814C114.012 155.814 114.762 156.11 115.254 156.702C115.746 157.294 115.998 158.179 116.01 159.356V165.5H113.47V159.418C113.47 158.879 113.353 158.489 113.118 158.249C112.884 158.003 112.494 157.88 111.949 157.88C111.234 157.88 110.698 158.185 110.341 158.794V165.5H107.801V155.99H110.191ZM123.094 162.872C123.094 162.562 122.938 162.318 122.628 162.143C122.323 161.961 121.831 161.8 121.151 161.659C118.89 161.185 117.759 160.224 117.759 158.776C117.759 157.933 118.107 157.229 118.805 156.667C119.508 156.099 120.425 155.814 121.556 155.814C122.763 155.814 123.727 156.099 124.447 156.667C125.174 157.235 125.537 157.974 125.537 158.882H122.997C122.997 158.519 122.88 158.22 122.646 157.985C122.411 157.745 122.045 157.625 121.547 157.625C121.119 157.625 120.788 157.722 120.554 157.915C120.319 158.108 120.202 158.354 120.202 158.653C120.202 158.935 120.334 159.163 120.598 159.339C120.867 159.509 121.318 159.658 121.951 159.787C122.584 159.91 123.117 160.051 123.551 160.209C124.893 160.701 125.563 161.554 125.563 162.767C125.563 163.634 125.191 164.337 124.447 164.876C123.703 165.409 122.742 165.676 121.564 165.676C120.768 165.676 120.059 165.535 119.438 165.254C118.822 164.967 118.339 164.577 117.987 164.085C117.636 163.587 117.46 163.051 117.46 162.477H119.868C119.892 162.928 120.059 163.273 120.369 163.514C120.68 163.754 121.096 163.874 121.617 163.874C122.104 163.874 122.47 163.783 122.716 163.602C122.968 163.414 123.094 163.171 123.094 162.872ZM135.768 160.833C135.768 162.298 135.434 163.473 134.766 164.357C134.104 165.236 133.207 165.676 132.076 165.676C131.115 165.676 130.339 165.342 129.747 164.674V169.156H127.207V155.99H129.562L129.65 156.922C130.266 156.184 131.068 155.814 132.059 155.814C133.23 155.814 134.142 156.248 134.792 157.115C135.442 157.982 135.768 159.178 135.768 160.701V160.833ZM133.228 160.648C133.228 159.764 133.069 159.081 132.753 158.601C132.442 158.12 131.988 157.88 131.391 157.88C130.594 157.88 130.046 158.185 129.747 158.794V162.688C130.058 163.314 130.611 163.628 131.408 163.628C132.621 163.628 133.228 162.635 133.228 160.648ZM136.954 160.657C136.954 159.714 137.136 158.873 137.499 158.135C137.862 157.396 138.384 156.825 139.063 156.421C139.749 156.017 140.543 155.814 141.445 155.814C142.729 155.814 143.774 156.207 144.583 156.992C145.397 157.777 145.852 158.844 145.945 160.191L145.963 160.842C145.963 162.301 145.556 163.473 144.741 164.357C143.927 165.236 142.834 165.676 141.463 165.676C140.092 165.676 138.996 165.236 138.176 164.357C137.361 163.479 136.954 162.283 136.954 160.771V160.657ZM139.494 160.842C139.494 161.744 139.664 162.436 140.004 162.916C140.344 163.391 140.83 163.628 141.463 163.628C142.078 163.628 142.559 163.394 142.904 162.925C143.25 162.45 143.423 161.694 143.423 160.657C143.423 159.772 143.25 159.087 142.904 158.601C142.559 158.114 142.072 157.871 141.445 157.871C140.824 157.871 140.344 158.114 140.004 158.601C139.664 159.081 139.494 159.828 139.494 160.842ZM152.871 158.372C152.525 158.325 152.221 158.302 151.957 158.302C150.996 158.302 150.366 158.627 150.067 159.277V165.5H147.527V155.99H149.927L149.997 157.124C150.507 156.251 151.213 155.814 152.115 155.814C152.396 155.814 152.66 155.853 152.906 155.929L152.871 158.372ZM157.582 153.652V155.99H159.208V157.854H157.582V162.6C157.582 162.951 157.649 163.203 157.784 163.355C157.919 163.508 158.177 163.584 158.558 163.584C158.839 163.584 159.088 163.563 159.305 163.522V165.447C158.807 165.6 158.294 165.676 157.767 165.676C155.985 165.676 155.077 164.776 155.042 162.978V157.854H153.653V155.99H155.042V153.652H157.582Z" fill="#333333"/>
<path d="M0 102C0 96.4772 4.47715 92 10 92H230C235.523 92 240 96.4772 240 102V125C240 130.523 235.523 135 230 135H10C4.47716 135 0 130.523 0 125V102Z" fill="#FFB7B4"/>
<path d="M95.584 116.643C95.584 116.145 95.4082 115.764 95.0566 115.5C94.7051 115.23 94.0723 114.949 93.1582 114.656C92.2441 114.357 91.5205 114.064 90.9873 113.777C89.5342 112.992 88.8076 111.935 88.8076 110.604C88.8076 109.913 89.001 109.298 89.3877 108.759C89.7803 108.214 90.3398 107.789 91.0664 107.484C91.7988 107.18 92.6191 107.027 93.5273 107.027C94.4414 107.027 95.2559 107.194 95.9707 107.528C96.6855 107.856 97.2393 108.322 97.6318 108.926C98.0303 109.529 98.2295 110.215 98.2295 110.982H95.5928C95.5928 110.396 95.4082 109.942 95.0391 109.62C94.6699 109.292 94.1514 109.128 93.4834 109.128C92.8389 109.128 92.3379 109.266 91.9805 109.541C91.623 109.811 91.4443 110.168 91.4443 110.613C91.4443 111.029 91.6523 111.378 92.0684 111.659C92.4902 111.94 93.1084 112.204 93.9229 112.45C95.4229 112.901 96.5156 113.461 97.2012 114.129C97.8867 114.797 98.2295 115.629 98.2295 116.625C98.2295 117.732 97.8105 118.603 96.9727 119.235C96.1348 119.862 95.0068 120.176 93.5889 120.176C92.6045 120.176 91.708 119.997 90.8994 119.64C90.0908 119.276 89.4727 118.781 89.0449 118.154C88.623 117.527 88.4121 116.801 88.4121 115.975H91.0576C91.0576 117.387 91.9014 118.093 93.5889 118.093C94.2158 118.093 94.7051 117.967 95.0566 117.715C95.4082 117.457 95.584 117.1 95.584 116.643ZM104.232 120.176C102.838 120.176 101.701 119.748 100.822 118.893C99.9492 118.037 99.5127 116.897 99.5127 115.474V115.228C99.5127 114.272 99.6973 113.42 100.066 112.67C100.436 111.914 100.957 111.334 101.631 110.93C102.311 110.52 103.084 110.314 103.951 110.314C105.252 110.314 106.274 110.725 107.019 111.545C107.769 112.365 108.144 113.528 108.144 115.034V116.071H102.088C102.17 116.692 102.416 117.19 102.826 117.565C103.242 117.94 103.767 118.128 104.399 118.128C105.378 118.128 106.143 117.773 106.693 117.064L107.941 118.462C107.561 119.001 107.045 119.423 106.395 119.728C105.744 120.026 105.023 120.176 104.232 120.176ZM103.942 112.371C103.438 112.371 103.028 112.541 102.712 112.881C102.401 113.221 102.202 113.707 102.114 114.34H105.647V114.138C105.636 113.575 105.483 113.142 105.19 112.837C104.897 112.526 104.481 112.371 103.942 112.371ZM114.744 117.372C114.744 117.062 114.589 116.818 114.278 116.643C113.974 116.461 113.481 116.3 112.802 116.159C110.54 115.685 109.409 114.724 109.409 113.276C109.409 112.433 109.758 111.729 110.455 111.167C111.158 110.599 112.075 110.314 113.206 110.314C114.413 110.314 115.377 110.599 116.098 111.167C116.824 111.735 117.188 112.474 117.188 113.382H114.647C114.647 113.019 114.53 112.72 114.296 112.485C114.062 112.245 113.695 112.125 113.197 112.125C112.77 112.125 112.438 112.222 112.204 112.415C111.97 112.608 111.853 112.854 111.853 113.153C111.853 113.435 111.984 113.663 112.248 113.839C112.518 114.009 112.969 114.158 113.602 114.287C114.234 114.41 114.768 114.551 115.201 114.709C116.543 115.201 117.214 116.054 117.214 117.267C117.214 118.134 116.842 118.837 116.098 119.376C115.354 119.909 114.393 120.176 113.215 120.176C112.418 120.176 111.709 120.035 111.088 119.754C110.473 119.467 109.989 119.077 109.638 118.585C109.286 118.087 109.11 117.551 109.11 116.977H111.519C111.542 117.428 111.709 117.773 112.02 118.014C112.33 118.254 112.746 118.374 113.268 118.374C113.754 118.374 114.12 118.283 114.366 118.102C114.618 117.914 114.744 117.671 114.744 117.372ZM124.008 117.372C124.008 117.062 123.853 116.818 123.542 116.643C123.237 116.461 122.745 116.3 122.065 116.159C119.804 115.685 118.673 114.724 118.673 113.276C118.673 112.433 119.021 111.729 119.719 111.167C120.422 110.599 121.339 110.314 122.47 110.314C123.677 110.314 124.641 110.599 125.361 111.167C126.088 111.735 126.451 112.474 126.451 113.382H123.911C123.911 113.019 123.794 112.72 123.56 112.485C123.325 112.245 122.959 112.125 122.461 112.125C122.033 112.125 121.702 112.222 121.468 112.415C121.233 112.608 121.116 112.854 121.116 113.153C121.116 113.435 121.248 113.663 121.512 113.839C121.781 114.009 122.232 114.158 122.865 114.287C123.498 114.41 124.031 114.551 124.465 114.709C125.807 115.201 126.478 116.054 126.478 117.267C126.478 118.134 126.105 118.837 125.361 119.376C124.617 119.909 123.656 120.176 122.479 120.176C121.682 120.176 120.973 120.035 120.352 119.754C119.736 119.467 119.253 119.077 118.901 118.585C118.55 118.087 118.374 117.551 118.374 116.977H120.782C120.806 117.428 120.973 117.773 121.283 118.014C121.594 118.254 122.01 118.374 122.531 118.374C123.018 118.374 123.384 118.283 123.63 118.102C123.882 117.914 124.008 117.671 124.008 117.372ZM130.802 120H128.253V110.49H130.802V120ZM128.104 108.029C128.104 107.648 128.229 107.335 128.481 107.089C128.739 106.843 129.088 106.72 129.527 106.72C129.961 106.72 130.307 106.843 130.564 107.089C130.822 107.335 130.951 107.648 130.951 108.029C130.951 108.416 130.819 108.732 130.556 108.979C130.298 109.225 129.955 109.348 129.527 109.348C129.1 109.348 128.754 109.225 128.49 108.979C128.232 108.732 128.104 108.416 128.104 108.029ZM132.507 115.157C132.507 114.214 132.688 113.373 133.052 112.635C133.415 111.896 133.937 111.325 134.616 110.921C135.302 110.517 136.096 110.314 136.998 110.314C138.281 110.314 139.327 110.707 140.136 111.492C140.95 112.277 141.404 113.344 141.498 114.691L141.516 115.342C141.516 116.801 141.108 117.973 140.294 118.857C139.479 119.736 138.387 120.176 137.016 120.176C135.645 120.176 134.549 119.736 133.729 118.857C132.914 117.979 132.507 116.783 132.507 115.271V115.157ZM135.047 115.342C135.047 116.244 135.217 116.936 135.557 117.416C135.896 117.891 136.383 118.128 137.016 118.128C137.631 118.128 138.111 117.894 138.457 117.425C138.803 116.95 138.976 116.194 138.976 115.157C138.976 114.272 138.803 113.587 138.457 113.101C138.111 112.614 137.625 112.371 136.998 112.371C136.377 112.371 135.896 112.614 135.557 113.101C135.217 113.581 135.047 114.328 135.047 115.342ZM145.418 110.49L145.497 111.589C146.177 110.739 147.088 110.314 148.23 110.314C149.238 110.314 149.988 110.61 150.48 111.202C150.973 111.794 151.225 112.679 151.236 113.856V120H148.696V113.918C148.696 113.379 148.579 112.989 148.345 112.749C148.11 112.503 147.721 112.38 147.176 112.38C146.461 112.38 145.925 112.685 145.567 113.294V120H143.027V110.49H145.418Z" fill="#333333"/>
<path d="M0 56C0 50.4772 4.47715 46 10 46H230C235.523 46 240 50.4772 240 56V79C240 84.5228 235.523 89 230 89H10C4.47716 89 0 84.5228 0 79V56Z" fill="#FFB7B4"/>
<path d="M71.9238 69.4912V74H69.2871V61.2031H74.2793C75.2402 61.2031 76.084 61.3789 76.8105 61.7305C77.543 62.082 78.1055 62.583 78.498 63.2334C78.8906 63.8779 79.0869 64.6133 79.0869 65.4395C79.0869 66.6934 78.6562 67.6836 77.7949 68.4102C76.9395 69.1309 75.7529 69.4912 74.2354 69.4912H71.9238ZM71.9238 67.3555H74.2793C74.9766 67.3555 75.5068 67.1914 75.8701 66.8633C76.2393 66.5352 76.4238 66.0664 76.4238 65.457C76.4238 64.8301 76.2393 64.3232 75.8701 63.9365C75.501 63.5498 74.9912 63.3506 74.3408 63.3389H71.9238V67.3555ZM86.083 66.8721C85.7373 66.8252 85.4326 66.8018 85.1689 66.8018C84.208 66.8018 83.5781 67.127 83.2793 67.7773V74H80.7393V64.4902H83.1387L83.209 65.624C83.7188 64.751 84.4248 64.3145 85.3271 64.3145C85.6084 64.3145 85.8721 64.3525 86.1182 64.4287L86.083 66.8721ZM91.5146 74.1758C90.1201 74.1758 88.9834 73.748 88.1045 72.8926C87.2314 72.0371 86.7949 70.8975 86.7949 69.4736V69.2275C86.7949 68.2725 86.9795 67.4199 87.3486 66.6699C87.7178 65.9141 88.2393 65.334 88.9131 64.9297C89.5928 64.5195 90.3662 64.3145 91.2334 64.3145C92.5342 64.3145 93.5566 64.7246 94.3008 65.5449C95.0508 66.3652 95.4258 67.5283 95.4258 69.0342V70.0713H89.3701C89.4521 70.6924 89.6982 71.1904 90.1084 71.5654C90.5244 71.9404 91.0488 72.1279 91.6816 72.1279C92.6602 72.1279 93.4248 71.7734 93.9756 71.0645L95.2236 72.4619C94.8428 73.001 94.3271 73.4229 93.6768 73.7275C93.0264 74.0264 92.3057 74.1758 91.5146 74.1758ZM91.2246 66.3711C90.7207 66.3711 90.3105 66.541 89.9941 66.8809C89.6836 67.2207 89.4844 67.707 89.3965 68.3398H92.9297V68.1377C92.918 67.5752 92.7656 67.1416 92.4727 66.8369C92.1797 66.5264 91.7637 66.3711 91.2246 66.3711ZM102.026 71.3721C102.026 71.0615 101.871 70.8184 101.561 70.6426C101.256 70.4609 100.764 70.2998 100.084 70.1592C97.8223 69.6846 96.6914 68.7236 96.6914 67.2764C96.6914 66.4326 97.04 65.7295 97.7373 65.167C98.4404 64.5986 99.3574 64.3145 100.488 64.3145C101.695 64.3145 102.659 64.5986 103.38 65.167C104.106 65.7354 104.47 66.4736 104.47 67.3818H101.93C101.93 67.0186 101.812 66.7197 101.578 66.4854C101.344 66.2451 100.978 66.125 100.479 66.125C100.052 66.125 99.7207 66.2217 99.4863 66.415C99.252 66.6084 99.1348 66.8545 99.1348 67.1533C99.1348 67.4346 99.2666 67.6631 99.5303 67.8389C99.7998 68.0088 100.251 68.1582 100.884 68.2871C101.517 68.4102 102.05 68.5508 102.483 68.709C103.825 69.2012 104.496 70.0537 104.496 71.2666C104.496 72.1338 104.124 72.8369 103.38 73.376C102.636 73.9092 101.675 74.1758 100.497 74.1758C99.7002 74.1758 98.9912 74.0352 98.3701 73.7539C97.7549 73.4668 97.2715 73.0771 96.9199 72.585C96.5684 72.0869 96.3926 71.5508 96.3926 70.9766H98.8008C98.8242 71.4277 98.9912 71.7734 99.3018 72.0137C99.6123 72.2539 100.028 72.374 100.55 72.374C101.036 72.374 101.402 72.2832 101.648 72.1016C101.9 71.9141 102.026 71.6709 102.026 71.3721ZM110.517 74.1758C109.122 74.1758 107.985 73.748 107.106 72.8926C106.233 72.0371 105.797 70.8975 105.797 69.4736V69.2275C105.797 68.2725 105.981 67.4199 106.351 66.6699C106.72 65.9141 107.241 65.334 107.915 64.9297C108.595 64.5195 109.368 64.3145 110.235 64.3145C111.536 64.3145 112.559 64.7246 113.303 65.5449C114.053 66.3652 114.428 67.5283 114.428 69.0342V70.0713H108.372C108.454 70.6924 108.7 71.1904 109.11 71.5654C109.526 71.9404 110.051 72.1279 110.684 72.1279C111.662 72.1279 112.427 71.7734 112.978 71.0645L114.226 72.4619C113.845 73.001 113.329 73.4229 112.679 73.7275C112.028 74.0264 111.308 74.1758 110.517 74.1758ZM110.227 66.3711C109.723 66.3711 109.312 66.541 108.996 66.8809C108.686 67.2207 108.486 67.707 108.398 68.3398H111.932V68.1377C111.92 67.5752 111.768 67.1416 111.475 66.8369C111.182 66.5264 110.766 66.3711 110.227 66.3711ZM118.216 64.4902L118.295 65.5889C118.975 64.7393 119.886 64.3145 121.028 64.3145C122.036 64.3145 122.786 64.6104 123.278 65.2021C123.771 65.7939 124.022 66.6787 124.034 67.8564V74H121.494V67.918C121.494 67.3789 121.377 66.9893 121.143 66.749C120.908 66.5029 120.519 66.3799 119.974 66.3799C119.259 66.3799 118.723 66.6846 118.365 67.2939V74H115.825V64.4902H118.216ZM129.009 62.1523V64.4902H130.635V66.3535H129.009V71.0996C129.009 71.4512 129.076 71.7031 129.211 71.8555C129.346 72.0078 129.604 72.084 129.984 72.084C130.266 72.084 130.515 72.0635 130.731 72.0225V73.9473C130.233 74.0996 129.721 74.1758 129.193 74.1758C127.412 74.1758 126.504 73.2764 126.469 71.4775V66.3535H125.08V64.4902H126.469V62.1523H129.009ZM137.561 74C137.443 73.7715 137.358 73.4873 137.306 73.1475C136.69 73.833 135.891 74.1758 134.906 74.1758C133.975 74.1758 133.201 73.9062 132.586 73.3672C131.977 72.8281 131.672 72.1484 131.672 71.3281C131.672 70.3203 132.044 69.5469 132.788 69.0078C133.538 68.4688 134.619 68.1963 136.031 68.1904H137.2V67.6455C137.2 67.2061 137.086 66.8545 136.857 66.5908C136.635 66.3271 136.28 66.1953 135.794 66.1953C135.366 66.1953 135.029 66.2979 134.783 66.5029C134.543 66.708 134.423 66.9893 134.423 67.3467H131.883C131.883 66.7959 132.053 66.2861 132.393 65.8174C132.732 65.3486 133.213 64.9824 133.834 64.7188C134.455 64.4492 135.152 64.3145 135.926 64.3145C137.098 64.3145 138.026 64.6104 138.712 65.2021C139.403 65.7881 139.749 66.6143 139.749 67.6807V71.8027C139.755 72.7051 139.881 73.3877 140.127 73.8506V74H137.561ZM135.46 72.2334C135.835 72.2334 136.181 72.1514 136.497 71.9873C136.813 71.8174 137.048 71.5918 137.2 71.3105V69.6758H136.251C134.979 69.6758 134.303 70.1152 134.221 70.9941L134.212 71.1436C134.212 71.46 134.323 71.7207 134.546 71.9258C134.769 72.1309 135.073 72.2334 135.46 72.2334ZM144.741 62.1523V64.4902H146.367V66.3535H144.741V71.0996C144.741 71.4512 144.809 71.7031 144.943 71.8555C145.078 72.0078 145.336 72.084 145.717 72.084C145.998 72.084 146.247 72.0635 146.464 72.0225V73.9473C145.966 74.0996 145.453 74.1758 144.926 74.1758C143.145 74.1758 142.236 73.2764 142.201 71.4775V66.3535H140.812V64.4902H142.201V62.1523H144.741ZM150.463 74H147.914V64.4902H150.463V74ZM147.765 62.0293C147.765 61.6484 147.891 61.335 148.143 61.0889C148.4 60.8428 148.749 60.7197 149.188 60.7197C149.622 60.7197 149.968 60.8428 150.226 61.0889C150.483 61.335 150.612 61.6484 150.612 62.0293C150.612 62.416 150.48 62.7324 150.217 62.9785C149.959 63.2246 149.616 63.3477 149.188 63.3477C148.761 63.3477 148.415 63.2246 148.151 62.9785C147.894 62.7324 147.765 62.416 147.765 62.0293ZM152.168 69.1572C152.168 68.2139 152.35 67.373 152.713 66.6348C153.076 65.8965 153.598 65.3252 154.277 64.9209C154.963 64.5166 155.757 64.3145 156.659 64.3145C157.942 64.3145 158.988 64.707 159.797 65.4922C160.611 66.2773 161.065 67.3438 161.159 68.6914L161.177 69.3418C161.177 70.8008 160.77 71.9727 159.955 72.8574C159.141 73.7363 158.048 74.1758 156.677 74.1758C155.306 74.1758 154.21 73.7363 153.39 72.8574C152.575 71.9785 152.168 70.7832 152.168 69.2715V69.1572ZM154.708 69.3418C154.708 70.2441 154.878 70.9355 155.218 71.416C155.558 71.8906 156.044 72.1279 156.677 72.1279C157.292 72.1279 157.772 71.8936 158.118 71.4248C158.464 70.9502 158.637 70.1943 158.637 69.1572C158.637 68.2725 158.464 67.5869 158.118 67.1006C157.772 66.6143 157.286 66.3711 156.659 66.3711C156.038 66.3711 155.558 66.6143 155.218 67.1006C154.878 67.5811 154.708 68.3281 154.708 69.3418ZM165.079 64.4902L165.158 65.5889C165.838 64.7393 166.749 64.3145 167.892 64.3145C168.899 64.3145 169.649 64.6104 170.142 65.2021C170.634 65.7939 170.886 66.6787 170.897 67.8564V74H168.357V67.918C168.357 67.3789 168.24 66.9893 168.006 66.749C167.771 66.5029 167.382 66.3799 166.837 66.3799C166.122 66.3799 165.586 66.6846 165.229 67.2939V74H162.688V64.4902H165.079Z" fill="#333333"/>
<path d="M0 10C0 4.47715 4.47715 0 10 0H230C235.523 0 240 4.47715 240 10V33C240 38.5228 235.523 43 230 43H10C4.47716 43 0 38.5228 0 33V10Z" fill="#FFB7B4"/>
<path d="M82.5146 25.3633H77.8916L77.0127 28H74.209L78.9727 15.2031H81.416L86.2061 28H83.4023L82.5146 25.3633ZM78.6035 23.2275H81.8027L80.1943 18.4375L78.6035 23.2275ZM95.373 23.333C95.373 24.7979 95.0391 25.9727 94.3711 26.8574C93.709 27.7363 92.8125 28.1758 91.6816 28.1758C90.7207 28.1758 89.9443 27.8418 89.3525 27.1738V31.6562H86.8125V18.4902H89.168L89.2559 19.4219C89.8711 18.6836 90.6738 18.3145 91.6641 18.3145C92.8359 18.3145 93.7471 18.748 94.3975 19.6152C95.0479 20.4824 95.373 21.6777 95.373 23.2012V23.333ZM92.833 23.1484C92.833 22.2637 92.6748 21.5811 92.3584 21.1006C92.0479 20.6201 91.5938 20.3799 90.9961 20.3799C90.1992 20.3799 89.6514 20.6846 89.3525 21.2939V25.1875C89.6631 25.8145 90.2168 26.1279 91.0137 26.1279C92.2266 26.1279 92.833 25.1348 92.833 23.1484ZM105.516 23.333C105.516 24.7979 105.182 25.9727 104.514 26.8574C103.852 27.7363 102.955 28.1758 101.824 28.1758C100.863 28.1758 100.087 27.8418 99.4951 27.1738V31.6562H96.9551V18.4902H99.3105L99.3984 19.4219C100.014 18.6836 100.816 18.3145 101.807 18.3145C102.979 18.3145 103.89 18.748 104.54 19.6152C105.19 20.4824 105.516 21.6777 105.516 23.2012V23.333ZM102.976 23.1484C102.976 22.2637 102.817 21.5811 102.501 21.1006C102.19 20.6201 101.736 20.3799 101.139 20.3799C100.342 20.3799 99.7939 20.6846 99.4951 21.2939V25.1875C99.8057 25.8145 100.359 26.1279 101.156 26.1279C102.369 26.1279 102.976 25.1348 102.976 23.1484ZM109.778 28H107.229V14.5H109.778V28ZM114.56 28H112.011V18.4902H114.56V28ZM111.861 16.0293C111.861 15.6484 111.987 15.335 112.239 15.0889C112.497 14.8428 112.846 14.7197 113.285 14.7197C113.719 14.7197 114.064 14.8428 114.322 15.0889C114.58 15.335 114.709 15.6484 114.709 16.0293C114.709 16.416 114.577 16.7324 114.313 16.9785C114.056 17.2246 113.713 17.3477 113.285 17.3477C112.857 17.3477 112.512 17.2246 112.248 16.9785C111.99 16.7324 111.861 16.416 111.861 16.0293ZM120.615 26.1279C121.084 26.1279 121.465 25.999 121.758 25.7412C122.051 25.4834 122.203 25.1406 122.215 24.7129H124.597C124.591 25.3574 124.415 25.9492 124.069 26.4883C123.724 27.0215 123.249 27.4375 122.646 27.7363C122.048 28.0293 121.386 28.1758 120.659 28.1758C119.3 28.1758 118.228 27.7451 117.442 26.8838C116.657 26.0166 116.265 24.8213 116.265 23.2979V23.1309C116.265 21.666 116.654 20.4971 117.434 19.624C118.213 18.751 119.282 18.3145 120.642 18.3145C121.831 18.3145 122.783 18.6543 123.498 19.334C124.219 20.0078 124.585 20.9072 124.597 22.0322H122.215C122.203 21.54 122.051 21.1416 121.758 20.8369C121.465 20.5264 121.078 20.3711 120.598 20.3711C120.006 20.3711 119.558 20.5879 119.253 21.0215C118.954 21.4492 118.805 22.1465 118.805 23.1133V23.377C118.805 24.3555 118.954 25.0586 119.253 25.4863C119.552 25.9141 120.006 26.1279 120.615 26.1279ZM131.558 28C131.44 27.7715 131.355 27.4873 131.303 27.1475C130.688 27.833 129.888 28.1758 128.903 28.1758C127.972 28.1758 127.198 27.9062 126.583 27.3672C125.974 26.8281 125.669 26.1484 125.669 25.3281C125.669 24.3203 126.041 23.5469 126.785 23.0078C127.535 22.4688 128.616 22.1963 130.028 22.1904H131.197V21.6455C131.197 21.2061 131.083 20.8545 130.854 20.5908C130.632 20.3271 130.277 20.1953 129.791 20.1953C129.363 20.1953 129.026 20.2979 128.78 20.5029C128.54 20.708 128.42 20.9893 128.42 21.3467H125.88C125.88 20.7959 126.05 20.2861 126.39 19.8174C126.729 19.3486 127.21 18.9824 127.831 18.7188C128.452 18.4492 129.149 18.3145 129.923 18.3145C131.095 18.3145 132.023 18.6104 132.709 19.2021C133.4 19.7881 133.746 20.6143 133.746 21.6807V25.8027C133.752 26.7051 133.878 27.3877 134.124 27.8506V28H131.558ZM129.457 26.2334C129.832 26.2334 130.178 26.1514 130.494 25.9873C130.811 25.8174 131.045 25.5918 131.197 25.3105V23.6758H130.248C128.977 23.6758 128.3 24.1152 128.218 24.9941L128.209 25.1436C128.209 25.46 128.32 25.7207 128.543 25.9258C128.766 26.1309 129.07 26.2334 129.457 26.2334ZM138.738 16.1523V18.4902H140.364V20.3535H138.738V25.0996C138.738 25.4512 138.806 25.7031 138.94 25.8555C139.075 26.0078 139.333 26.084 139.714 26.084C139.995 26.084 140.244 26.0635 140.461 26.0225V27.9473C139.963 28.0996 139.45 28.1758 138.923 28.1758C137.142 28.1758 136.233 27.2764 136.198 25.4775V20.3535H134.81V18.4902H136.198V16.1523H138.738ZM144.46 28H141.911V18.4902H144.46V28ZM141.762 16.0293C141.762 15.6484 141.888 15.335 142.14 15.0889C142.397 14.8428 142.746 14.7197 143.186 14.7197C143.619 14.7197 143.965 14.8428 144.223 15.0889C144.48 15.335 144.609 15.6484 144.609 16.0293C144.609 16.416 144.478 16.7324 144.214 16.9785C143.956 17.2246 143.613 17.3477 143.186 17.3477C142.758 17.3477 142.412 17.2246 142.148 16.9785C141.891 16.7324 141.762 16.416 141.762 16.0293ZM146.165 23.1572C146.165 22.2139 146.347 21.373 146.71 20.6348C147.073 19.8965 147.595 19.3252 148.274 18.9209C148.96 18.5166 149.754 18.3145 150.656 18.3145C151.939 18.3145 152.985 18.707 153.794 19.4922C154.608 20.2773 155.062 21.3438 155.156 22.6914L155.174 23.3418C155.174 24.8008 154.767 25.9727 153.952 26.8574C153.138 27.7363 152.045 28.1758 150.674 28.1758C149.303 28.1758 148.207 27.7363 147.387 26.8574C146.572 25.9785 146.165 24.7832 146.165 23.2715V23.1572ZM148.705 23.3418C148.705 24.2441 148.875 24.9355 149.215 25.416C149.555 25.8906 150.041 26.1279 150.674 26.1279C151.289 26.1279 151.77 25.8936 152.115 25.4248C152.461 24.9502 152.634 24.1943 152.634 23.1572C152.634 22.2725 152.461 21.5869 152.115 21.1006C151.77 20.6143 151.283 20.3711 150.656 20.3711C150.035 20.3711 149.555 20.6143 149.215 21.1006C148.875 21.5811 148.705 22.3281 148.705 23.3418ZM159.076 18.4902L159.155 19.5889C159.835 18.7393 160.746 18.3145 161.889 18.3145C162.896 18.3145 163.646 18.6104 164.139 19.2021C164.631 19.7939 164.883 20.6787 164.895 21.8564V28H162.354V21.918C162.354 21.3789 162.237 20.9893 162.003 20.749C161.769 20.5029 161.379 20.3799 160.834 20.3799C160.119 20.3799 159.583 20.6846 159.226 21.2939V28H156.686V18.4902H159.076Z" fill="#333333"/>
<path d="M98.1387 351.588C98.1387 352.498 97.9779 353.296 97.6562 353.981C97.3346 354.667 96.8734 355.196 96.2725 355.568C95.6758 355.941 94.9902 356.127 94.2158 356.127C93.4499 356.127 92.7664 355.943 92.1655 355.575C91.5646 355.207 91.0991 354.682 90.769 354C90.439 353.315 90.2718 352.528 90.2676 351.639V351.182C90.2676 350.272 90.4305 349.472 90.7563 348.783C91.0864 348.089 91.5498 347.558 92.1465 347.189C92.7474 346.817 93.4329 346.631 94.2031 346.631C94.9733 346.631 95.6567 346.817 96.2534 347.189C96.8543 347.558 97.3177 348.089 97.6436 348.783C97.9736 349.472 98.1387 350.27 98.1387 351.176V351.588ZM96.209 351.169C96.209 350.2 96.0355 349.464 95.6885 348.96C95.3415 348.457 94.8464 348.205 94.2031 348.205C93.5641 348.205 93.0711 348.455 92.7241 348.954C92.3771 349.449 92.2015 350.177 92.1973 351.138V351.588C92.1973 352.532 92.3708 353.264 92.7178 353.785C93.0648 354.305 93.5641 354.565 94.2158 354.565C94.8548 354.565 95.3457 354.316 95.6885 353.816C96.0312 353.313 96.2048 352.581 96.209 351.62V351.169ZM104.315 353.575C104.315 353.215 104.188 352.94 103.934 352.75C103.68 352.555 103.223 352.352 102.563 352.141C101.903 351.925 101.38 351.713 100.995 351.506C99.9456 350.939 99.4209 350.175 99.4209 349.214C99.4209 348.715 99.5605 348.271 99.8398 347.881C100.123 347.488 100.528 347.181 101.052 346.961C101.581 346.741 102.174 346.631 102.83 346.631C103.49 346.631 104.078 346.751 104.594 346.993C105.111 347.23 105.51 347.566 105.794 348.002C106.082 348.438 106.226 348.933 106.226 349.487H104.321C104.321 349.064 104.188 348.736 103.921 348.503C103.655 348.266 103.28 348.148 102.798 348.148C102.332 348.148 101.971 348.247 101.712 348.446C101.454 348.641 101.325 348.899 101.325 349.221C101.325 349.521 101.475 349.773 101.776 349.976C102.081 350.179 102.527 350.37 103.115 350.547C104.199 350.873 104.988 351.277 105.483 351.76C105.978 352.242 106.226 352.843 106.226 353.562C106.226 354.362 105.923 354.991 105.318 355.448C104.713 355.901 103.898 356.127 102.874 356.127C102.163 356.127 101.516 355.998 100.932 355.74C100.348 355.477 99.9012 355.12 99.5923 354.667C99.2876 354.214 99.1353 353.689 99.1353 353.093H101.046C101.046 354.113 101.655 354.623 102.874 354.623C103.327 354.623 103.68 354.532 103.934 354.35C104.188 354.163 104.315 353.905 104.315 353.575ZM109.545 356H107.641V346.758H109.545V356ZM117.042 346.758L119.416 353.461L121.777 346.758H124.278V356H122.368V353.474L122.558 349.113L120.063 356H118.756L116.268 349.119L116.458 353.474V356H114.554V346.758H117.042ZM125.535 352.502C125.535 351.821 125.666 351.214 125.929 350.681C126.191 350.147 126.568 349.735 127.059 349.443C127.554 349.151 128.127 349.005 128.779 349.005C129.706 349.005 130.461 349.288 131.045 349.855C131.633 350.423 131.961 351.193 132.029 352.166L132.042 352.636C132.042 353.689 131.747 354.536 131.159 355.175C130.571 355.81 129.782 356.127 128.792 356.127C127.801 356.127 127.01 355.81 126.417 355.175C125.829 354.54 125.535 353.677 125.535 352.585V352.502ZM127.37 352.636C127.37 353.287 127.492 353.787 127.738 354.134C127.983 354.477 128.334 354.648 128.792 354.648C129.236 354.648 129.583 354.479 129.833 354.14C130.082 353.797 130.207 353.251 130.207 352.502C130.207 351.863 130.082 351.368 129.833 351.017C129.583 350.666 129.232 350.49 128.779 350.49C128.33 350.49 127.983 350.666 127.738 351.017C127.492 351.364 127.37 351.904 127.37 352.636ZM132.886 352.515C132.886 351.444 133.125 350.592 133.603 349.957C134.085 349.322 134.743 349.005 135.577 349.005C136.246 349.005 136.798 349.255 137.234 349.754V346.25H139.075V356H137.418L137.329 355.27C136.872 355.841 136.284 356.127 135.564 356.127C134.756 356.127 134.107 355.81 133.616 355.175C133.129 354.536 132.886 353.649 132.886 352.515ZM134.72 352.648C134.72 353.292 134.832 353.785 135.057 354.127C135.281 354.47 135.607 354.642 136.034 354.642C136.601 354.642 137.001 354.403 137.234 353.924V351.214C137.005 350.736 136.61 350.497 136.047 350.497C135.162 350.497 134.72 351.214 134.72 352.648ZM143.658 356.127C142.651 356.127 141.83 355.818 141.195 355.2C140.564 354.582 140.249 353.759 140.249 352.731V352.553C140.249 351.863 140.382 351.248 140.649 350.706C140.916 350.16 141.292 349.741 141.779 349.449C142.27 349.153 142.828 349.005 143.455 349.005C144.394 349.005 145.132 349.301 145.67 349.894C146.212 350.486 146.482 351.326 146.482 352.414V353.163H142.109C142.168 353.611 142.346 353.971 142.642 354.242C142.943 354.513 143.321 354.648 143.778 354.648C144.485 354.648 145.037 354.392 145.435 353.88L146.336 354.889C146.061 355.278 145.689 355.583 145.219 355.803C144.75 356.019 144.229 356.127 143.658 356.127ZM143.448 350.49C143.084 350.49 142.788 350.613 142.56 350.858C142.335 351.104 142.191 351.455 142.128 351.912H144.68V351.766C144.671 351.36 144.561 351.047 144.35 350.827C144.138 350.602 143.838 350.49 143.448 350.49ZM149.466 356H147.625V346.25H149.466V356Z" fill="#333333"/>
<path d="M393.214 348.3H390.383V356H388.479V348.3H385.686V346.758H393.214V348.3ZM401.383 352.921C401.311 353.916 400.943 354.699 400.279 355.27C399.619 355.841 398.747 356.127 397.664 356.127C396.479 356.127 395.546 355.729 394.864 354.934C394.187 354.134 393.849 353.038 393.849 351.646V351.081C393.849 350.192 394.005 349.409 394.318 348.732C394.632 348.055 395.078 347.536 395.658 347.177C396.242 346.813 396.919 346.631 397.689 346.631C398.755 346.631 399.614 346.917 400.266 347.488C400.918 348.059 401.294 348.861 401.396 349.894H399.492C399.445 349.297 399.278 348.865 398.99 348.599C398.707 348.328 398.273 348.192 397.689 348.192C397.054 348.192 396.578 348.421 396.261 348.878C395.948 349.331 395.787 350.035 395.778 350.992V351.69C395.778 352.689 395.929 353.419 396.229 353.88C396.534 354.341 397.012 354.572 397.664 354.572C398.252 354.572 398.69 354.438 398.978 354.172C399.27 353.901 399.437 353.484 399.479 352.921H401.383ZM404.538 352.744V356H402.634V346.758H406.239C406.933 346.758 407.543 346.885 408.067 347.139C408.596 347.393 409.003 347.754 409.286 348.224C409.57 348.69 409.711 349.221 409.711 349.817C409.711 350.723 409.4 351.438 408.778 351.963C408.16 352.483 407.304 352.744 406.208 352.744H404.538ZM404.538 351.201H406.239C406.743 351.201 407.126 351.083 407.388 350.846C407.655 350.609 407.788 350.27 407.788 349.83C407.788 349.377 407.655 349.011 407.388 348.732C407.122 348.453 406.753 348.309 406.284 348.3H404.538V351.201ZM411.482 356.793H410.118L413.52 346.758H414.885L411.482 356.793ZM417.913 356H416.008V346.758H417.913V356ZM421.588 352.744V356H419.684V346.758H423.289C423.983 346.758 424.592 346.885 425.117 347.139C425.646 347.393 426.052 347.754 426.336 348.224C426.619 348.69 426.761 349.221 426.761 349.817C426.761 350.723 426.45 351.438 425.828 351.963C425.21 352.483 424.353 352.744 423.257 352.744H421.588ZM421.588 351.201H423.289C423.793 351.201 424.176 351.083 424.438 350.846C424.705 350.609 424.838 350.27 424.838 349.83C424.838 349.377 424.705 349.011 424.438 348.732C424.171 348.453 423.803 348.309 423.333 348.3H421.588V351.201ZM431.274 352.242C431.274 351.273 431.403 350.351 431.662 349.475C431.92 348.599 432.301 347.824 432.804 347.151C433.308 346.474 433.854 346.005 434.442 345.742L434.797 346.732C434.18 347.189 433.697 347.896 433.35 348.853C433.003 349.809 432.83 350.926 432.83 352.204V352.401C432.83 353.683 433.001 354.805 433.344 355.765C433.687 356.726 434.171 357.443 434.797 357.917L434.442 358.888C433.866 358.63 433.329 358.173 432.83 357.517C432.334 356.865 431.956 356.112 431.693 355.257C431.431 354.403 431.291 353.51 431.274 352.579V352.242ZM442.878 346.758V352.845C442.878 353.857 442.561 354.656 441.926 355.245C441.295 355.833 440.432 356.127 439.336 356.127C438.257 356.127 437.4 355.841 436.765 355.27C436.13 354.699 435.807 353.914 435.794 352.915V346.758H437.698V352.858C437.698 353.463 437.842 353.905 438.13 354.185C438.422 354.46 438.824 354.597 439.336 354.597C440.407 354.597 440.95 354.034 440.967 352.909V346.758H442.878ZM450.501 352.629C450.501 353.687 450.26 354.536 449.778 355.175C449.3 355.81 448.652 356.127 447.835 356.127C447.141 356.127 446.581 355.886 446.153 355.403V358.641H444.319V349.132H446.02L446.083 349.805C446.528 349.271 447.108 349.005 447.823 349.005C448.669 349.005 449.327 349.318 449.797 349.944C450.267 350.571 450.501 351.434 450.501 352.534V352.629ZM448.667 352.496C448.667 351.857 448.553 351.364 448.324 351.017C448.1 350.67 447.772 350.497 447.34 350.497C446.765 350.497 446.369 350.717 446.153 351.157V353.969C446.378 354.422 446.778 354.648 447.353 354.648C448.229 354.648 448.667 353.931 448.667 352.496ZM451.358 352.515C451.358 351.444 451.597 350.592 452.076 349.957C452.558 349.322 453.216 349.005 454.05 349.005C454.718 349.005 455.271 349.255 455.707 349.754V346.25H457.547V356H455.891L455.802 355.27C455.345 355.841 454.757 356.127 454.037 356.127C453.229 356.127 452.579 355.81 452.088 355.175C451.602 354.536 451.358 353.649 451.358 352.515ZM453.193 352.648C453.193 353.292 453.305 353.785 453.529 354.127C453.754 354.47 454.079 354.642 454.507 354.642C455.074 354.642 455.474 354.403 455.707 353.924V351.214C455.478 350.736 455.082 350.497 454.52 350.497C453.635 350.497 453.193 351.214 453.193 352.648ZM462.949 356C462.865 355.835 462.803 355.63 462.765 355.384C462.321 355.879 461.743 356.127 461.032 356.127C460.359 356.127 459.801 355.932 459.356 355.543C458.916 355.154 458.696 354.663 458.696 354.07C458.696 353.342 458.965 352.784 459.502 352.395C460.044 352.005 460.825 351.808 461.845 351.804H462.689V351.411C462.689 351.093 462.606 350.839 462.441 350.649C462.281 350.458 462.025 350.363 461.673 350.363C461.364 350.363 461.121 350.437 460.943 350.585C460.77 350.734 460.683 350.937 460.683 351.195H458.849C458.849 350.797 458.971 350.429 459.217 350.09C459.462 349.752 459.809 349.487 460.258 349.297C460.706 349.102 461.21 349.005 461.769 349.005C462.615 349.005 463.286 349.219 463.781 349.646C464.28 350.069 464.53 350.666 464.53 351.436V354.413C464.534 355.065 464.625 355.558 464.803 355.892V356H462.949ZM461.432 354.724C461.703 354.724 461.953 354.665 462.181 354.546C462.41 354.424 462.579 354.261 462.689 354.058V352.877H462.003C461.085 352.877 460.596 353.194 460.537 353.829L460.531 353.937C460.531 354.166 460.611 354.354 460.772 354.502C460.933 354.65 461.153 354.724 461.432 354.724ZM468.135 347.443V349.132H469.31V350.478H468.135V353.905C468.135 354.159 468.184 354.341 468.281 354.451C468.379 354.561 468.565 354.616 468.84 354.616C469.043 354.616 469.223 354.601 469.379 354.572V355.962C469.02 356.072 468.649 356.127 468.269 356.127C466.982 356.127 466.326 355.477 466.301 354.178V350.478H465.298V349.132H466.301V347.443H468.135ZM473.493 356.127C472.486 356.127 471.665 355.818 471.03 355.2C470.399 354.582 470.084 353.759 470.084 352.731V352.553C470.084 351.863 470.217 351.248 470.484 350.706C470.75 350.16 471.127 349.741 471.614 349.449C472.105 349.153 472.663 349.005 473.29 349.005C474.229 349.005 474.967 349.301 475.505 349.894C476.047 350.486 476.317 351.326 476.317 352.414V353.163H471.944C472.003 353.611 472.181 353.971 472.477 354.242C472.778 354.513 473.156 354.648 473.613 354.648C474.32 354.648 474.872 354.392 475.27 353.88L476.171 354.889C475.896 355.278 475.524 355.583 475.054 355.803C474.584 356.019 474.064 356.127 473.493 356.127ZM473.283 350.49C472.919 350.49 472.623 350.613 472.395 350.858C472.17 351.104 472.026 351.455 471.963 351.912H474.515V351.766C474.506 351.36 474.396 351.047 474.185 350.827C473.973 350.602 473.673 350.49 473.283 350.49ZM477.079 352.515C477.079 351.444 477.318 350.592 477.796 349.957C478.279 349.322 478.937 349.005 479.771 349.005C480.439 349.005 480.991 349.255 481.427 349.754V346.25H483.268V356H481.611L481.522 355.27C481.065 355.841 480.477 356.127 479.758 356.127C478.95 356.127 478.3 355.81 477.809 355.175C477.322 354.536 477.079 353.649 477.079 352.515ZM478.914 352.648C478.914 353.292 479.026 353.785 479.25 354.127C479.474 354.47 479.8 354.642 480.228 354.642C480.795 354.642 481.194 354.403 481.427 353.924V351.214C481.199 350.736 480.803 350.497 480.24 350.497C479.356 350.497 478.914 351.214 478.914 352.648ZM487.851 352.388C487.851 353.345 487.714 354.265 487.438 355.149C487.163 356.034 486.768 356.815 486.251 357.492C485.735 358.169 485.183 358.634 484.595 358.888L484.239 357.917C484.84 357.464 485.314 356.766 485.661 355.822C486.008 354.879 486.188 353.793 486.201 352.566V352.229C486.201 350.964 486.027 349.849 485.68 348.884C485.337 347.919 484.857 347.196 484.239 346.713L484.595 345.742C485.17 345.992 485.712 346.445 486.22 347.101C486.732 347.757 487.127 348.52 487.407 349.392C487.69 350.264 487.838 351.167 487.851 352.103V352.388Z" fill="#333333"/>
<path d="M0 239C0 233.477 4.47715 229 10 229H230C235.523 229 240 233.477 240 239V261C240 266.523 235.523 271 230 271H10C4.47716 271 0 266.523 0 261V239Z" fill="#A3D7FD"/>
<path d="M83.2354 256.5V243.703H87.1729C88.2979 243.703 89.3027 243.958 90.1875 244.468C91.0781 244.972 91.7725 245.692 92.2705 246.63C92.7686 247.562 93.0176 248.622 93.0176 249.812V250.4C93.0176 251.59 92.7715 252.647 92.2793 253.573C91.793 254.499 91.1045 255.217 90.2139 255.727C89.3232 256.236 88.3184 256.494 87.1992 256.5H83.2354ZM85.8721 245.839V254.382H87.1465C88.1777 254.382 88.9658 254.045 89.5107 253.371C90.0557 252.697 90.334 251.733 90.3457 250.479V249.803C90.3457 248.502 90.0762 247.518 89.5371 246.85C88.998 246.176 88.21 245.839 87.1729 245.839H85.8721ZM100.286 256.5C100.169 256.271 100.084 255.987 100.031 255.647C99.416 256.333 98.6162 256.676 97.6318 256.676C96.7002 256.676 95.9268 256.406 95.3115 255.867C94.7021 255.328 94.3975 254.648 94.3975 253.828C94.3975 252.82 94.7695 252.047 95.5137 251.508C96.2637 250.969 97.3447 250.696 98.7568 250.69H99.9258V250.146C99.9258 249.706 99.8115 249.354 99.583 249.091C99.3604 248.827 99.0059 248.695 98.5195 248.695C98.0918 248.695 97.7549 248.798 97.5088 249.003C97.2686 249.208 97.1484 249.489 97.1484 249.847H94.6084C94.6084 249.296 94.7783 248.786 95.1182 248.317C95.458 247.849 95.9385 247.482 96.5596 247.219C97.1807 246.949 97.8779 246.814 98.6514 246.814C99.8232 246.814 100.752 247.11 101.438 247.702C102.129 248.288 102.475 249.114 102.475 250.181V254.303C102.48 255.205 102.606 255.888 102.853 256.351V256.5H100.286ZM98.1855 254.733C98.5605 254.733 98.9062 254.651 99.2227 254.487C99.5391 254.317 99.7734 254.092 99.9258 253.811V252.176H98.9766C97.7051 252.176 97.0283 252.615 96.9463 253.494L96.9375 253.644C96.9375 253.96 97.0488 254.221 97.2715 254.426C97.4941 254.631 97.7988 254.733 98.1855 254.733ZM107.467 244.652V246.99H109.093V248.854H107.467V253.6C107.467 253.951 107.534 254.203 107.669 254.355C107.804 254.508 108.062 254.584 108.442 254.584C108.724 254.584 108.973 254.563 109.189 254.522V256.447C108.691 256.6 108.179 256.676 107.651 256.676C105.87 256.676 104.962 255.776 104.927 253.978V248.854H103.538V246.99H104.927V244.652H107.467ZM116.019 256.5C115.901 256.271 115.816 255.987 115.764 255.647C115.148 256.333 114.349 256.676 113.364 256.676C112.433 256.676 111.659 256.406 111.044 255.867C110.435 255.328 110.13 254.648 110.13 253.828C110.13 252.82 110.502 252.047 111.246 251.508C111.996 250.969 113.077 250.696 114.489 250.69H115.658V250.146C115.658 249.706 115.544 249.354 115.315 249.091C115.093 248.827 114.738 248.695 114.252 248.695C113.824 248.695 113.487 248.798 113.241 249.003C113.001 249.208 112.881 249.489 112.881 249.847H110.341C110.341 249.296 110.511 248.786 110.851 248.317C111.19 247.849 111.671 247.482 112.292 247.219C112.913 246.949 113.61 246.814 114.384 246.814C115.556 246.814 116.484 247.11 117.17 247.702C117.861 248.288 118.207 249.114 118.207 250.181V254.303C118.213 255.205 118.339 255.888 118.585 256.351V256.5H116.019ZM113.918 254.733C114.293 254.733 114.639 254.651 114.955 254.487C115.271 254.317 115.506 254.092 115.658 253.811V252.176H114.709C113.438 252.176 112.761 252.615 112.679 253.494L112.67 253.644C112.67 253.96 112.781 254.221 113.004 254.426C113.227 254.631 113.531 254.733 113.918 254.733ZM127.444 254.382H133.043V256.5H124.808V243.703H127.444V254.382ZM137.077 256.5H134.528V246.99H137.077V256.5ZM134.379 244.529C134.379 244.148 134.505 243.835 134.757 243.589C135.015 243.343 135.363 243.22 135.803 243.22C136.236 243.22 136.582 243.343 136.84 243.589C137.098 243.835 137.227 244.148 137.227 244.529C137.227 244.916 137.095 245.232 136.831 245.479C136.573 245.725 136.23 245.848 135.803 245.848C135.375 245.848 135.029 245.725 134.766 245.479C134.508 245.232 134.379 244.916 134.379 244.529ZM141.516 246.99L141.595 248.089C142.274 247.239 143.186 246.814 144.328 246.814C145.336 246.814 146.086 247.11 146.578 247.702C147.07 248.294 147.322 249.179 147.334 250.356V256.5H144.794V250.418C144.794 249.879 144.677 249.489 144.442 249.249C144.208 249.003 143.818 248.88 143.273 248.88C142.559 248.88 142.022 249.185 141.665 249.794V256.5H139.125V246.99H141.516ZM152.722 252.686L151.808 253.6V256.5H149.268V243H151.808V250.479L152.3 249.847L154.734 246.99H157.784L154.348 250.954L158.083 256.5H155.165L152.722 252.686Z" fill="#333333"/>
<path d="M0 284C0 278.477 4.47715 274 10 274H230C235.523 274 240 278.477 240 284V307C240 312.523 235.523 317 230 317H10C4.47716 317 0 312.523 0 307V284Z" fill="#A3D7FD"/>
<path d="M89.4844 297.491V302H86.8477V289.203H91.8398C92.8008 289.203 93.6445 289.379 94.3711 289.73C95.1035 290.082 95.666 290.583 96.0586 291.233C96.4512 291.878 96.6475 292.613 96.6475 293.439C96.6475 294.693 96.2168 295.684 95.3555 296.41C94.5 297.131 93.3135 297.491 91.7959 297.491H89.4844ZM89.4844 295.355H91.8398C92.5371 295.355 93.0674 295.191 93.4307 294.863C93.7998 294.535 93.9844 294.066 93.9844 293.457C93.9844 292.83 93.7998 292.323 93.4307 291.937C93.0615 291.55 92.5518 291.351 91.9014 291.339H89.4844V295.355ZM100.778 293.527C101.452 292.719 102.299 292.314 103.318 292.314C105.381 292.314 106.427 293.513 106.456 295.909V302H103.916V295.979C103.916 295.435 103.799 295.033 103.564 294.775C103.33 294.512 102.94 294.38 102.396 294.38C101.651 294.38 101.112 294.667 100.778 295.241V302H98.2383V288.5H100.778V293.527ZM111.923 298.405L113.681 292.49H116.405L112.582 303.477L112.371 303.978C111.803 305.22 110.865 305.841 109.559 305.841C109.189 305.841 108.814 305.785 108.434 305.674V303.749L108.82 303.758C109.301 303.758 109.658 303.685 109.893 303.538C110.133 303.392 110.32 303.148 110.455 302.809L110.754 302.026L107.423 292.49H110.156L111.923 298.405ZM122.558 299.372C122.558 299.062 122.402 298.818 122.092 298.643C121.787 298.461 121.295 298.3 120.615 298.159C118.354 297.685 117.223 296.724 117.223 295.276C117.223 294.433 117.571 293.729 118.269 293.167C118.972 292.599 119.889 292.314 121.02 292.314C122.227 292.314 123.19 292.599 123.911 293.167C124.638 293.735 125.001 294.474 125.001 295.382H122.461C122.461 295.019 122.344 294.72 122.109 294.485C121.875 294.245 121.509 294.125 121.011 294.125C120.583 294.125 120.252 294.222 120.018 294.415C119.783 294.608 119.666 294.854 119.666 295.153C119.666 295.435 119.798 295.663 120.062 295.839C120.331 296.009 120.782 296.158 121.415 296.287C122.048 296.41 122.581 296.551 123.015 296.709C124.356 297.201 125.027 298.054 125.027 299.267C125.027 300.134 124.655 300.837 123.911 301.376C123.167 301.909 122.206 302.176 121.028 302.176C120.231 302.176 119.522 302.035 118.901 301.754C118.286 301.467 117.803 301.077 117.451 300.585C117.1 300.087 116.924 299.551 116.924 298.977H119.332C119.355 299.428 119.522 299.773 119.833 300.014C120.144 300.254 120.56 300.374 121.081 300.374C121.567 300.374 121.934 300.283 122.18 300.102C122.432 299.914 122.558 299.671 122.558 299.372ZM129.352 302H126.803V292.49H129.352V302ZM126.653 290.029C126.653 289.648 126.779 289.335 127.031 289.089C127.289 288.843 127.638 288.72 128.077 288.72C128.511 288.72 128.856 288.843 129.114 289.089C129.372 289.335 129.501 289.648 129.501 290.029C129.501 290.416 129.369 290.732 129.105 290.979C128.848 291.225 128.505 291.348 128.077 291.348C127.649 291.348 127.304 291.225 127.04 290.979C126.782 290.732 126.653 290.416 126.653 290.029ZM135.407 300.128C135.876 300.128 136.257 299.999 136.55 299.741C136.843 299.483 136.995 299.141 137.007 298.713H139.389C139.383 299.357 139.207 299.949 138.861 300.488C138.516 301.021 138.041 301.438 137.438 301.736C136.84 302.029 136.178 302.176 135.451 302.176C134.092 302.176 133.02 301.745 132.234 300.884C131.449 300.017 131.057 298.821 131.057 297.298V297.131C131.057 295.666 131.446 294.497 132.226 293.624C133.005 292.751 134.074 292.314 135.434 292.314C136.623 292.314 137.575 292.654 138.29 293.334C139.011 294.008 139.377 294.907 139.389 296.032H137.007C136.995 295.54 136.843 295.142 136.55 294.837C136.257 294.526 135.87 294.371 135.39 294.371C134.798 294.371 134.35 294.588 134.045 295.021C133.746 295.449 133.597 296.146 133.597 297.113V297.377C133.597 298.355 133.746 299.059 134.045 299.486C134.344 299.914 134.798 300.128 135.407 300.128ZM146.35 302C146.232 301.771 146.147 301.487 146.095 301.147C145.479 301.833 144.68 302.176 143.695 302.176C142.764 302.176 141.99 301.906 141.375 301.367C140.766 300.828 140.461 300.148 140.461 299.328C140.461 298.32 140.833 297.547 141.577 297.008C142.327 296.469 143.408 296.196 144.82 296.19H145.989V295.646C145.989 295.206 145.875 294.854 145.646 294.591C145.424 294.327 145.069 294.195 144.583 294.195C144.155 294.195 143.818 294.298 143.572 294.503C143.332 294.708 143.212 294.989 143.212 295.347H140.672C140.672 294.796 140.842 294.286 141.182 293.817C141.521 293.349 142.002 292.982 142.623 292.719C143.244 292.449 143.941 292.314 144.715 292.314C145.887 292.314 146.815 292.61 147.501 293.202C148.192 293.788 148.538 294.614 148.538 295.681V299.803C148.544 300.705 148.67 301.388 148.916 301.851V302H146.35ZM144.249 300.233C144.624 300.233 144.97 300.151 145.286 299.987C145.603 299.817 145.837 299.592 145.989 299.311V297.676H145.04C143.769 297.676 143.092 298.115 143.01 298.994L143.001 299.144C143.001 299.46 143.112 299.721 143.335 299.926C143.558 300.131 143.862 300.233 144.249 300.233ZM153.17 302H150.621V288.5H153.17V302Z" fill="#333333"/>
<path d="M317 193C317 187.477 321.477 183 327 183H547C552.523 183 557 187.477 557 193V216C557 221.523 552.523 226 547 226H327C321.477 226 317 221.523 317 216V193Z" fill="#C3E9AB"/>
<path d="M414.482 211H411.846L406.713 202.58V211H404.076V198.203H406.713L411.854 206.641V198.203H414.482V211ZM420.995 211.176C419.601 211.176 418.464 210.748 417.585 209.893C416.712 209.037 416.275 207.897 416.275 206.474V206.228C416.275 205.272 416.46 204.42 416.829 203.67C417.198 202.914 417.72 202.334 418.394 201.93C419.073 201.52 419.847 201.314 420.714 201.314C422.015 201.314 423.037 201.725 423.781 202.545C424.531 203.365 424.906 204.528 424.906 206.034V207.071H418.851C418.933 207.692 419.179 208.19 419.589 208.565C420.005 208.94 420.529 209.128 421.162 209.128C422.141 209.128 422.905 208.773 423.456 208.064L424.704 209.462C424.323 210.001 423.808 210.423 423.157 210.728C422.507 211.026 421.786 211.176 420.995 211.176ZM420.705 203.371C420.201 203.371 419.791 203.541 419.475 203.881C419.164 204.221 418.965 204.707 418.877 205.34H422.41V205.138C422.398 204.575 422.246 204.142 421.953 203.837C421.66 203.526 421.244 203.371 420.705 203.371ZM429.397 199.152V201.49H431.023V203.354H429.397V208.1C429.397 208.451 429.465 208.703 429.6 208.855C429.734 209.008 429.992 209.084 430.373 209.084C430.654 209.084 430.903 209.063 431.12 209.022V210.947C430.622 211.1 430.109 211.176 429.582 211.176C427.801 211.176 426.893 210.276 426.857 208.478V203.354H425.469V201.49H426.857V199.152H429.397ZM440.709 207.546L441.957 201.49H444.409L441.983 211H439.856L438.055 205.015L436.253 211H434.135L431.709 201.49H434.161L435.4 207.537L437.141 201.49H438.978L440.709 207.546ZM445.279 206.157C445.279 205.214 445.461 204.373 445.824 203.635C446.188 202.896 446.709 202.325 447.389 201.921C448.074 201.517 448.868 201.314 449.771 201.314C451.054 201.314 452.1 201.707 452.908 202.492C453.723 203.277 454.177 204.344 454.271 205.691L454.288 206.342C454.288 207.801 453.881 208.973 453.066 209.857C452.252 210.736 451.159 211.176 449.788 211.176C448.417 211.176 447.321 210.736 446.501 209.857C445.687 208.979 445.279 207.783 445.279 206.271V206.157ZM447.819 206.342C447.819 207.244 447.989 207.936 448.329 208.416C448.669 208.891 449.155 209.128 449.788 209.128C450.403 209.128 450.884 208.894 451.229 208.425C451.575 207.95 451.748 207.194 451.748 206.157C451.748 205.272 451.575 204.587 451.229 204.101C450.884 203.614 450.397 203.371 449.771 203.371C449.149 203.371 448.669 203.614 448.329 204.101C447.989 204.581 447.819 205.328 447.819 206.342ZM461.196 203.872C460.851 203.825 460.546 203.802 460.282 203.802C459.321 203.802 458.691 204.127 458.393 204.777V211H455.853V201.49H458.252L458.322 202.624C458.832 201.751 459.538 201.314 460.44 201.314C460.722 201.314 460.985 201.353 461.231 201.429L461.196 203.872ZM465.881 207.186L464.967 208.1V211H462.427V197.5H464.967V204.979L465.459 204.347L467.894 201.49H470.943L467.507 205.454L471.242 211H468.324L465.881 207.186Z" fill="#333333"/>
<path d="M317 148C317 142.477 321.477 138 327 138H547C552.523 138 557 142.477 557 148V170C557 175.523 552.523 180 547 180H327C321.477 180 317 175.523 317 170V148Z" fill="#FDEEA9"/>
<path d="M408.128 154.839H404.208V165.5H401.571V154.839H397.704V152.703H408.128V154.839ZM414.236 158.372C413.891 158.325 413.586 158.302 413.322 158.302C412.361 158.302 411.731 158.627 411.433 159.277V165.5H408.893V155.99H411.292L411.362 157.124C411.872 156.251 412.578 155.814 413.48 155.814C413.762 155.814 414.025 155.853 414.271 155.929L414.236 158.372ZM420.714 165.5C420.597 165.271 420.512 164.987 420.459 164.647C419.844 165.333 419.044 165.676 418.06 165.676C417.128 165.676 416.354 165.406 415.739 164.867C415.13 164.328 414.825 163.648 414.825 162.828C414.825 161.82 415.197 161.047 415.941 160.508C416.691 159.969 417.772 159.696 419.185 159.69H420.354V159.146C420.354 158.706 420.239 158.354 420.011 158.091C419.788 157.827 419.434 157.695 418.947 157.695C418.52 157.695 418.183 157.798 417.937 158.003C417.696 158.208 417.576 158.489 417.576 158.847H415.036C415.036 158.296 415.206 157.786 415.546 157.317C415.886 156.849 416.366 156.482 416.987 156.219C417.608 155.949 418.306 155.814 419.079 155.814C420.251 155.814 421.18 156.11 421.865 156.702C422.557 157.288 422.902 158.114 422.902 159.181V163.303C422.908 164.205 423.034 164.888 423.28 165.351V165.5H420.714ZM418.613 163.733C418.988 163.733 419.334 163.651 419.65 163.487C419.967 163.317 420.201 163.092 420.354 162.811V161.176H419.404C418.133 161.176 417.456 161.615 417.374 162.494L417.365 162.644C417.365 162.96 417.477 163.221 417.699 163.426C417.922 163.631 418.227 163.733 418.613 163.733ZM427.191 155.99L427.271 157.089C427.95 156.239 428.861 155.814 430.004 155.814C431.012 155.814 431.762 156.11 432.254 156.702C432.746 157.294 432.998 158.179 433.01 159.356V165.5H430.47V159.418C430.47 158.879 430.353 158.489 430.118 158.249C429.884 158.003 429.494 157.88 428.949 157.88C428.234 157.88 427.698 158.185 427.341 158.794V165.5H424.801V155.99H427.191ZM440.094 162.872C440.094 162.562 439.938 162.318 439.628 162.143C439.323 161.961 438.831 161.8 438.151 161.659C435.89 161.185 434.759 160.224 434.759 158.776C434.759 157.933 435.107 157.229 435.805 156.667C436.508 156.099 437.425 155.814 438.556 155.814C439.763 155.814 440.727 156.099 441.447 156.667C442.174 157.235 442.537 157.974 442.537 158.882H439.997C439.997 158.519 439.88 158.22 439.646 157.985C439.411 157.745 439.045 157.625 438.547 157.625C438.119 157.625 437.788 157.722 437.554 157.915C437.319 158.108 437.202 158.354 437.202 158.653C437.202 158.935 437.334 159.163 437.598 159.339C437.867 159.509 438.318 159.658 438.951 159.787C439.584 159.91 440.117 160.051 440.551 160.209C441.893 160.701 442.563 161.554 442.563 162.767C442.563 163.634 442.191 164.337 441.447 164.876C440.703 165.409 439.742 165.676 438.564 165.676C437.768 165.676 437.059 165.535 436.438 165.254C435.822 164.967 435.339 164.577 434.987 164.085C434.636 163.587 434.46 163.051 434.46 162.477H436.868C436.892 162.928 437.059 163.273 437.369 163.514C437.68 163.754 438.096 163.874 438.617 163.874C439.104 163.874 439.47 163.783 439.716 163.602C439.968 163.414 440.094 163.171 440.094 162.872ZM452.768 160.833C452.768 162.298 452.434 163.473 451.766 164.357C451.104 165.236 450.207 165.676 449.076 165.676C448.115 165.676 447.339 165.342 446.747 164.674V169.156H444.207V155.99H446.562L446.65 156.922C447.266 156.184 448.068 155.814 449.059 155.814C450.23 155.814 451.142 156.248 451.792 157.115C452.442 157.982 452.768 159.178 452.768 160.701V160.833ZM450.228 160.648C450.228 159.764 450.069 159.081 449.753 158.601C449.442 158.12 448.988 157.88 448.391 157.88C447.594 157.88 447.046 158.185 446.747 158.794V162.688C447.058 163.314 447.611 163.628 448.408 163.628C449.621 163.628 450.228 162.635 450.228 160.648ZM453.954 160.657C453.954 159.714 454.136 158.873 454.499 158.135C454.862 157.396 455.384 156.825 456.063 156.421C456.749 156.017 457.543 155.814 458.445 155.814C459.729 155.814 460.774 156.207 461.583 156.992C462.397 157.777 462.852 158.844 462.945 160.191L462.963 160.842C462.963 162.301 462.556 163.473 461.741 164.357C460.927 165.236 459.834 165.676 458.463 165.676C457.092 165.676 455.996 165.236 455.176 164.357C454.361 163.479 453.954 162.283 453.954 160.771V160.657ZM456.494 160.842C456.494 161.744 456.664 162.436 457.004 162.916C457.344 163.391 457.83 163.628 458.463 163.628C459.078 163.628 459.559 163.394 459.904 162.925C460.25 162.45 460.423 161.694 460.423 160.657C460.423 159.772 460.25 159.087 459.904 158.601C459.559 158.114 459.072 157.871 458.445 157.871C457.824 157.871 457.344 158.114 457.004 158.601C456.664 159.081 456.494 159.828 456.494 160.842ZM469.871 158.372C469.525 158.325 469.221 158.302 468.957 158.302C467.996 158.302 467.366 158.627 467.067 159.277V165.5H464.527V155.99H466.927L466.997 157.124C467.507 156.251 468.213 155.814 469.115 155.814C469.396 155.814 469.66 155.853 469.906 155.929L469.871 158.372ZM474.582 153.652V155.99H476.208V157.854H474.582V162.6C474.582 162.951 474.649 163.203 474.784 163.355C474.919 163.508 475.177 163.584 475.558 163.584C475.839 163.584 476.088 163.563 476.305 163.522V165.447C475.807 165.6 475.294 165.676 474.767 165.676C472.985 165.676 472.077 164.776 472.042 162.978V157.854H470.653V155.99H472.042V153.652H474.582Z" fill="#333333"/>
<path d="M317 239C317 233.477 321.477 229 327 229H547C552.523 229 557 233.477 557 239V261C557 266.523 552.523 271 547 271H327C321.477 271 317 266.523 317 261V239Z" fill="#A3D7FD"/>
<path d="M400.235 256.5V243.703H404.173C405.298 243.703 406.303 243.958 407.188 244.468C408.078 244.972 408.772 245.692 409.271 246.63C409.769 247.562 410.018 248.622 410.018 249.812V250.4C410.018 251.59 409.771 252.647 409.279 253.573C408.793 254.499 408.104 255.217 407.214 255.727C406.323 256.236 405.318 256.494 404.199 256.5H400.235ZM402.872 245.839V254.382H404.146C405.178 254.382 405.966 254.045 406.511 253.371C407.056 252.697 407.334 251.733 407.346 250.479V249.803C407.346 248.502 407.076 247.518 406.537 246.85C405.998 246.176 405.21 245.839 404.173 245.839H402.872ZM417.286 256.5C417.169 256.271 417.084 255.987 417.031 255.647C416.416 256.333 415.616 256.676 414.632 256.676C413.7 256.676 412.927 256.406 412.312 255.867C411.702 255.328 411.397 254.648 411.397 253.828C411.397 252.82 411.77 252.047 412.514 251.508C413.264 250.969 414.345 250.696 415.757 250.69H416.926V250.146C416.926 249.706 416.812 249.354 416.583 249.091C416.36 248.827 416.006 248.695 415.52 248.695C415.092 248.695 414.755 248.798 414.509 249.003C414.269 249.208 414.148 249.489 414.148 249.847H411.608C411.608 249.296 411.778 248.786 412.118 248.317C412.458 247.849 412.938 247.482 413.56 247.219C414.181 246.949 414.878 246.814 415.651 246.814C416.823 246.814 417.752 247.11 418.438 247.702C419.129 248.288 419.475 249.114 419.475 250.181V254.303C419.48 255.205 419.606 255.888 419.853 256.351V256.5H417.286ZM415.186 254.733C415.561 254.733 415.906 254.651 416.223 254.487C416.539 254.317 416.773 254.092 416.926 253.811V252.176H415.977C414.705 252.176 414.028 252.615 413.946 253.494L413.938 253.644C413.938 253.96 414.049 254.221 414.271 254.426C414.494 254.631 414.799 254.733 415.186 254.733ZM424.467 244.652V246.99H426.093V248.854H424.467V253.6C424.467 253.951 424.534 254.203 424.669 254.355C424.804 254.508 425.062 254.584 425.442 254.584C425.724 254.584 425.973 254.563 426.189 254.522V256.447C425.691 256.6 425.179 256.676 424.651 256.676C422.87 256.676 421.962 255.776 421.927 253.978V248.854H420.538V246.99H421.927V244.652H424.467ZM433.019 256.5C432.901 256.271 432.816 255.987 432.764 255.647C432.148 256.333 431.349 256.676 430.364 256.676C429.433 256.676 428.659 256.406 428.044 255.867C427.435 255.328 427.13 254.648 427.13 253.828C427.13 252.82 427.502 252.047 428.246 251.508C428.996 250.969 430.077 250.696 431.489 250.69H432.658V250.146C432.658 249.706 432.544 249.354 432.315 249.091C432.093 248.827 431.738 248.695 431.252 248.695C430.824 248.695 430.487 248.798 430.241 249.003C430.001 249.208 429.881 249.489 429.881 249.847H427.341C427.341 249.296 427.511 248.786 427.851 248.317C428.19 247.849 428.671 247.482 429.292 247.219C429.913 246.949 430.61 246.814 431.384 246.814C432.556 246.814 433.484 247.11 434.17 247.702C434.861 248.288 435.207 249.114 435.207 250.181V254.303C435.213 255.205 435.339 255.888 435.585 256.351V256.5H433.019ZM430.918 254.733C431.293 254.733 431.639 254.651 431.955 254.487C432.271 254.317 432.506 254.092 432.658 253.811V252.176H431.709C430.438 252.176 429.761 252.615 429.679 253.494L429.67 253.644C429.67 253.96 429.781 254.221 430.004 254.426C430.227 254.631 430.531 254.733 430.918 254.733ZM444.444 254.382H450.043V256.5H441.808V243.703H444.444V254.382ZM454.077 256.5H451.528V246.99H454.077V256.5ZM451.379 244.529C451.379 244.148 451.505 243.835 451.757 243.589C452.015 243.343 452.363 243.22 452.803 243.22C453.236 243.22 453.582 243.343 453.84 243.589C454.098 243.835 454.227 244.148 454.227 244.529C454.227 244.916 454.095 245.232 453.831 245.479C453.573 245.725 453.23 245.848 452.803 245.848C452.375 245.848 452.029 245.725 451.766 245.479C451.508 245.232 451.379 244.916 451.379 244.529ZM458.516 246.99L458.595 248.089C459.274 247.239 460.186 246.814 461.328 246.814C462.336 246.814 463.086 247.11 463.578 247.702C464.07 248.294 464.322 249.179 464.334 250.356V256.5H461.794V250.418C461.794 249.879 461.677 249.489 461.442 249.249C461.208 249.003 460.818 248.88 460.273 248.88C459.559 248.88 459.022 249.185 458.665 249.794V256.5H456.125V246.99H458.516ZM469.722 252.686L468.808 253.6V256.5H466.268V243H468.808V250.479L469.3 249.847L471.734 246.99H474.784L471.348 250.954L475.083 256.5H472.165L469.722 252.686Z" fill="#333333"/>
<path d="M317 284C317 278.477 321.477 274 327 274H547C552.523 274 557 278.477 557 284V307C557 312.523 552.523 317 547 317H327C321.477 317 317 312.523 317 307V284Z" fill="#A3D7FD"/>
<path d="M406.484 297.491V302H403.848V289.203H408.84C409.801 289.203 410.645 289.379 411.371 289.73C412.104 290.082 412.666 290.583 413.059 291.233C413.451 291.878 413.647 292.613 413.647 293.439C413.647 294.693 413.217 295.684 412.355 296.41C411.5 297.131 410.313 297.491 408.796 297.491H406.484ZM406.484 295.355H408.84C409.537 295.355 410.067 295.191 410.431 294.863C410.8 294.535 410.984 294.066 410.984 293.457C410.984 292.83 410.8 292.323 410.431 291.937C410.062 291.55 409.552 291.351 408.901 291.339H406.484V295.355ZM417.778 293.527C418.452 292.719 419.299 292.314 420.318 292.314C422.381 292.314 423.427 293.513 423.456 295.909V302H420.916V295.979C420.916 295.435 420.799 295.033 420.564 294.775C420.33 294.512 419.94 294.38 419.396 294.38C418.651 294.38 418.112 294.667 417.778 295.241V302H415.238V288.5H417.778V293.527ZM428.923 298.405L430.681 292.49H433.405L429.582 303.477L429.371 303.978C428.803 305.22 427.865 305.841 426.559 305.841C426.189 305.841 425.814 305.785 425.434 305.674V303.749L425.82 303.758C426.301 303.758 426.658 303.685 426.893 303.538C427.133 303.392 427.32 303.148 427.455 302.809L427.754 302.026L424.423 292.49H427.156L428.923 298.405ZM439.558 299.372C439.558 299.062 439.402 298.818 439.092 298.643C438.787 298.461 438.295 298.3 437.615 298.159C435.354 297.685 434.223 296.724 434.223 295.276C434.223 294.433 434.571 293.729 435.269 293.167C435.972 292.599 436.889 292.314 438.02 292.314C439.227 292.314 440.19 292.599 440.911 293.167C441.638 293.735 442.001 294.474 442.001 295.382H439.461C439.461 295.019 439.344 294.72 439.109 294.485C438.875 294.245 438.509 294.125 438.011 294.125C437.583 294.125 437.252 294.222 437.018 294.415C436.783 294.608 436.666 294.854 436.666 295.153C436.666 295.435 436.798 295.663 437.062 295.839C437.331 296.009 437.782 296.158 438.415 296.287C439.048 296.41 439.581 296.551 440.015 296.709C441.356 297.201 442.027 298.054 442.027 299.267C442.027 300.134 441.655 300.837 440.911 301.376C440.167 301.909 439.206 302.176 438.028 302.176C437.231 302.176 436.522 302.035 435.901 301.754C435.286 301.467 434.803 301.077 434.451 300.585C434.1 300.087 433.924 299.551 433.924 298.977H436.332C436.355 299.428 436.522 299.773 436.833 300.014C437.144 300.254 437.56 300.374 438.081 300.374C438.567 300.374 438.934 300.283 439.18 300.102C439.432 299.914 439.558 299.671 439.558 299.372ZM446.352 302H443.803V292.49H446.352V302ZM443.653 290.029C443.653 289.648 443.779 289.335 444.031 289.089C444.289 288.843 444.638 288.72 445.077 288.72C445.511 288.72 445.856 288.843 446.114 289.089C446.372 289.335 446.501 289.648 446.501 290.029C446.501 290.416 446.369 290.732 446.105 290.979C445.848 291.225 445.505 291.348 445.077 291.348C444.649 291.348 444.304 291.225 444.04 290.979C443.782 290.732 443.653 290.416 443.653 290.029ZM452.407 300.128C452.876 300.128 453.257 299.999 453.55 299.741C453.843 299.483 453.995 299.141 454.007 298.713H456.389C456.383 299.357 456.207 299.949 455.861 300.488C455.516 301.021 455.041 301.438 454.438 301.736C453.84 302.029 453.178 302.176 452.451 302.176C451.092 302.176 450.02 301.745 449.234 300.884C448.449 300.017 448.057 298.821 448.057 297.298V297.131C448.057 295.666 448.446 294.497 449.226 293.624C450.005 292.751 451.074 292.314 452.434 292.314C453.623 292.314 454.575 292.654 455.29 293.334C456.011 294.008 456.377 294.907 456.389 296.032H454.007C453.995 295.54 453.843 295.142 453.55 294.837C453.257 294.526 452.87 294.371 452.39 294.371C451.798 294.371 451.35 294.588 451.045 295.021C450.746 295.449 450.597 296.146 450.597 297.113V297.377C450.597 298.355 450.746 299.059 451.045 299.486C451.344 299.914 451.798 300.128 452.407 300.128ZM463.35 302C463.232 301.771 463.147 301.487 463.095 301.147C462.479 301.833 461.68 302.176 460.695 302.176C459.764 302.176 458.99 301.906 458.375 301.367C457.766 300.828 457.461 300.148 457.461 299.328C457.461 298.32 457.833 297.547 458.577 297.008C459.327 296.469 460.408 296.196 461.82 296.19H462.989V295.646C462.989 295.206 462.875 294.854 462.646 294.591C462.424 294.327 462.069 294.195 461.583 294.195C461.155 294.195 460.818 294.298 460.572 294.503C460.332 294.708 460.212 294.989 460.212 295.347H457.672C457.672 294.796 457.842 294.286 458.182 293.817C458.521 293.349 459.002 292.982 459.623 292.719C460.244 292.449 460.941 292.314 461.715 292.314C462.887 292.314 463.815 292.61 464.501 293.202C465.192 293.788 465.538 294.614 465.538 295.681V299.803C465.544 300.705 465.67 301.388 465.916 301.851V302H463.35ZM461.249 300.233C461.624 300.233 461.97 300.151 462.286 299.987C462.603 299.817 462.837 299.592 462.989 299.311V297.676H462.04C460.769 297.676 460.092 298.115 460.01 298.994L460.001 299.144C460.001 299.46 460.112 299.721 460.335 299.926C460.558 300.131 460.862 300.233 461.249 300.233ZM470.17 302H467.621V288.5H470.17V302Z" fill="#333333"/>
<path d="M317 10C317 4.47715 321.477 0 327 0H547C552.523 0 557 4.47715 557 10V125C557 130.523 552.523 135 547 135H327C321.477 135 317 130.523 317 125V10Z" fill="#FFB7B4"/>
<path d="M399.515 71.3633H394.892L394.013 74H391.209L395.973 61.2031H398.416L403.206 74H400.402L399.515 71.3633ZM395.604 69.2275H398.803L397.194 64.4375L395.604 69.2275ZM412.373 69.333C412.373 70.7979 412.039 71.9727 411.371 72.8574C410.709 73.7363 409.812 74.1758 408.682 74.1758C407.721 74.1758 406.944 73.8418 406.353 73.1738V77.6562H403.812V64.4902H406.168L406.256 65.4219C406.871 64.6836 407.674 64.3145 408.664 64.3145C409.836 64.3145 410.747 64.748 411.397 65.6152C412.048 66.4824 412.373 67.6777 412.373 69.2012V69.333ZM409.833 69.1484C409.833 68.2637 409.675 67.5811 409.358 67.1006C409.048 66.6201 408.594 66.3799 407.996 66.3799C407.199 66.3799 406.651 66.6846 406.353 67.2939V71.1875C406.663 71.8145 407.217 72.1279 408.014 72.1279C409.227 72.1279 409.833 71.1348 409.833 69.1484ZM422.516 69.333C422.516 70.7979 422.182 71.9727 421.514 72.8574C420.852 73.7363 419.955 74.1758 418.824 74.1758C417.863 74.1758 417.087 73.8418 416.495 73.1738V77.6562H413.955V64.4902H416.311L416.398 65.4219C417.014 64.6836 417.816 64.3145 418.807 64.3145C419.979 64.3145 420.89 64.748 421.54 65.6152C422.19 66.4824 422.516 67.6777 422.516 69.2012V69.333ZM419.976 69.1484C419.976 68.2637 419.817 67.5811 419.501 67.1006C419.19 66.6201 418.736 66.3799 418.139 66.3799C417.342 66.3799 416.794 66.6846 416.495 67.2939V71.1875C416.806 71.8145 417.359 72.1279 418.156 72.1279C419.369 72.1279 419.976 71.1348 419.976 69.1484ZM426.778 74H424.229V60.5H426.778V74ZM431.56 74H429.011V64.4902H431.56V74ZM428.861 62.0293C428.861 61.6484 428.987 61.335 429.239 61.0889C429.497 60.8428 429.846 60.7197 430.285 60.7197C430.719 60.7197 431.064 60.8428 431.322 61.0889C431.58 61.335 431.709 61.6484 431.709 62.0293C431.709 62.416 431.577 62.7324 431.313 62.9785C431.056 63.2246 430.713 63.3477 430.285 63.3477C429.857 63.3477 429.512 63.2246 429.248 62.9785C428.99 62.7324 428.861 62.416 428.861 62.0293ZM437.615 72.1279C438.084 72.1279 438.465 71.999 438.758 71.7412C439.051 71.4834 439.203 71.1406 439.215 70.7129H441.597C441.591 71.3574 441.415 71.9492 441.069 72.4883C440.724 73.0215 440.249 73.4375 439.646 73.7363C439.048 74.0293 438.386 74.1758 437.659 74.1758C436.3 74.1758 435.228 73.7451 434.442 72.8838C433.657 72.0166 433.265 70.8213 433.265 69.2979V69.1309C433.265 67.666 433.654 66.4971 434.434 65.624C435.213 64.751 436.282 64.3145 437.642 64.3145C438.831 64.3145 439.783 64.6543 440.498 65.334C441.219 66.0078 441.585 66.9072 441.597 68.0322H439.215C439.203 67.54 439.051 67.1416 438.758 66.8369C438.465 66.5264 438.078 66.3711 437.598 66.3711C437.006 66.3711 436.558 66.5879 436.253 67.0215C435.954 67.4492 435.805 68.1465 435.805 69.1133V69.377C435.805 70.3555 435.954 71.0586 436.253 71.4863C436.552 71.9141 437.006 72.1279 437.615 72.1279ZM448.558 74C448.44 73.7715 448.355 73.4873 448.303 73.1475C447.688 73.833 446.888 74.1758 445.903 74.1758C444.972 74.1758 444.198 73.9062 443.583 73.3672C442.974 72.8281 442.669 72.1484 442.669 71.3281C442.669 70.3203 443.041 69.5469 443.785 69.0078C444.535 68.4688 445.616 68.1963 447.028 68.1904H448.197V67.6455C448.197 67.2061 448.083 66.8545 447.854 66.5908C447.632 66.3271 447.277 66.1953 446.791 66.1953C446.363 66.1953 446.026 66.2979 445.78 66.5029C445.54 66.708 445.42 66.9893 445.42 67.3467H442.88C442.88 66.7959 443.05 66.2861 443.39 65.8174C443.729 65.3486 444.21 64.9824 444.831 64.7188C445.452 64.4492 446.149 64.3145 446.923 64.3145C448.095 64.3145 449.023 64.6104 449.709 65.2021C450.4 65.7881 450.746 66.6143 450.746 67.6807V71.8027C450.752 72.7051 450.878 73.3877 451.124 73.8506V74H448.558ZM446.457 72.2334C446.832 72.2334 447.178 72.1514 447.494 71.9873C447.811 71.8174 448.045 71.5918 448.197 71.3105V69.6758H447.248C445.977 69.6758 445.3 70.1152 445.218 70.9941L445.209 71.1436C445.209 71.46 445.32 71.7207 445.543 71.9258C445.766 72.1309 446.07 72.2334 446.457 72.2334ZM455.738 62.1523V64.4902H457.364V66.3535H455.738V71.0996C455.738 71.4512 455.806 71.7031 455.94 71.8555C456.075 72.0078 456.333 72.084 456.714 72.084C456.995 72.084 457.244 72.0635 457.461 72.0225V73.9473C456.963 74.0996 456.45 74.1758 455.923 74.1758C454.142 74.1758 453.233 73.2764 453.198 71.4775V66.3535H451.81V64.4902H453.198V62.1523H455.738ZM461.46 74H458.911V64.4902H461.46V74ZM458.762 62.0293C458.762 61.6484 458.888 61.335 459.14 61.0889C459.397 60.8428 459.746 60.7197 460.186 60.7197C460.619 60.7197 460.965 60.8428 461.223 61.0889C461.48 61.335 461.609 61.6484 461.609 62.0293C461.609 62.416 461.478 62.7324 461.214 62.9785C460.956 63.2246 460.613 63.3477 460.186 63.3477C459.758 63.3477 459.412 63.2246 459.148 62.9785C458.891 62.7324 458.762 62.416 458.762 62.0293ZM463.165 69.1572C463.165 68.2139 463.347 67.373 463.71 66.6348C464.073 65.8965 464.595 65.3252 465.274 64.9209C465.96 64.5166 466.754 64.3145 467.656 64.3145C468.939 64.3145 469.985 64.707 470.794 65.4922C471.608 66.2773 472.062 67.3438 472.156 68.6914L472.174 69.3418C472.174 70.8008 471.767 71.9727 470.952 72.8574C470.138 73.7363 469.045 74.1758 467.674 74.1758C466.303 74.1758 465.207 73.7363 464.387 72.8574C463.572 71.9785 463.165 70.7832 463.165 69.2715V69.1572ZM465.705 69.3418C465.705 70.2441 465.875 70.9355 466.215 71.416C466.555 71.8906 467.041 72.1279 467.674 72.1279C468.289 72.1279 468.77 71.8936 469.115 71.4248C469.461 70.9502 469.634 70.1943 469.634 69.1572C469.634 68.2725 469.461 67.5869 469.115 67.1006C468.77 66.6143 468.283 66.3711 467.656 66.3711C467.035 66.3711 466.555 66.6143 466.215 67.1006C465.875 67.5811 465.705 68.3281 465.705 69.3418ZM476.076 64.4902L476.155 65.5889C476.835 64.7393 477.746 64.3145 478.889 64.3145C479.896 64.3145 480.646 64.6104 481.139 65.2021C481.631 65.7939 481.883 66.6787 481.895 67.8564V74H479.354V67.918C479.354 67.3789 479.237 66.9893 479.003 66.749C478.769 66.5029 478.379 66.3799 477.834 66.3799C477.119 66.3799 476.583 66.6846 476.226 67.2939V74H473.686V64.4902H476.076Z" fill="#333333"/>
</svg>
